<?xml version="1.0" standalone="no"?>
<!DOCTYPE svg PUBLIC "-//W3C//DTD SVG 20010904//EN"
 "http://www.w3.org/TR/2001/REC-SVG-20010904/DTD/svg10.dtd">
<svg version="1.0" xmlns="http://www.w3.org/2000/svg"
 width="1024.000000pt" height="1024.000000pt" viewBox="0 0 1024.000000 1024.000000"
 preserveAspectRatio="xMidYMid meet">

<g transform="translate(0.000000,1024.000000) scale(0.100000,-0.100000)"
fill="#003932" stroke="none">
<path d="M5065 7904 c-28 -15 -293 -160 -590 -322 -297 -162 -592 -323 -655
-357 -156 -85 -508 -279 -842 -465 l-278 -155 0 -1515 0 -1515 94 -48 c52 -26
161 -85 243 -131 81 -45 198 -108 258 -141 210 -111 260 -138 290 -155 17 -10
228 -124 470 -253 626 -334 960 -515 1040 -561 l30 -18 175 95 c96 52 270 145
385 207 116 61 262 140 325 175 63 34 158 85 210 112 52 28 181 97 285 153
105 57 262 142 350 190 88 47 283 153 433 234 l272 149 -2 1510 -3 1511 -215
121 c-118 67 -296 166 -395 220 -99 54 -279 153 -400 220 -121 67 -310 171
-420 230 -512 276 -817 441 -897 486 -49 27 -94 49 -101 49 -6 0 -35 -12 -62
-26z m170 -784 c126 -15 195 -35 311 -91 210 -102 319 -275 293 -465 -25 -183
-204 -347 -455 -416 -107 -29 -391 -32 -498 -5 -194 49 -374 173 -436 301 -71
148 -40 332 77 457 108 116 284 194 493 219 95 11 116 11 215 0z m-1489 -1938
c266 -93 543 -443 609 -770 25 -122 18 -295 -15 -381 -30 -78 -107 -166 -176
-201 -44 -23 -61 -25 -169 -25 -107 0 -127 3 -183 26 -91 39 -166 93 -262 189
-112 112 -174 196 -243 333 -71 140 -97 237 -104 387 -7 166 23 271 103 360
73 80 143 109 269 109 73 1 105 -4 171 -27z m2891 -376 c125 -33 211 -101 269
-212 46 -86 59 -152 58 -284 -1 -93 -6 -132 -28 -203 -47 -158 -128 -289 -241
-395 -90 -84 -176 -135 -282 -168 -72 -23 -96 -26 -180 -22 -86 4 -106 8 -162
37 -168 86 -250 255 -238 491 9 166 49 290 138 421 88 131 179 215 306 281
120 64 250 83 360 54z"/>
</g>
</svg>
